# xmcd CD database file
# Copyright (C) 1997 Ti Kan
# 
# Track frame offsets:
#     150
#     18785
#     33437
#     49225
#     64975
#     85327
#     114332
#     131527
#     155302
#     169750
#     184717
#     210559
#     223172
# 
# Disc length: 3193 seconds
# 
# Revision: 1
# Processed by: cddbd v1.4b41PL1 Copyright (c) Steve Scherf et al.
# Submitted via: DiscPlay 4.0.4
# 
DISCID=af0c770d
DTITLE=Blues Basement - Where The Eagle Flies (Unplugged)
DYEAR=1900
DGENRE=
TTITLE0=Highway Blues
TTITLE1=Make Love To Me
TTITLE2=How Many Times
TTITLE3=Life Is But A Dream
TTITLE4=Before You Accuse Me
TTITLE5=Fine Looking Woman
TTITLE6=Basement Boogie
TTITLE7=24 Hours
TTITLE8=The Fortune Teller
TTITLE9=One-Way Ticket
TTITLE10=Deep Down Inside Of Me
TTITLE11=Love Me Day And Night
TTITLE12=Where The Eagles Flies
EXTD=
EXTT0=
EXTT1=
EXTT2=
EXTT3=
EXTT4=
EXTT5=
EXTT6=
EXTT7=
EXTT8=
EXTT9=
EXTT10=
EXTT11=
EXTT12=
PLAYORDER=
